<svg width="100" height="100" viewBox="0 0 100 100" fill="none" xmlns="http://www.w3.org/2000/svg">
<path d="M22.043 78.0725C21.6209 78.4947 20.9352 78.4956 20.5244 78.0623C15.2554 72.5045 11.6593 65.5639 10.1624 58.0378C8.59521 50.1579 9.39957 41.9901 12.4738 34.5674C15.5481 27.1447 20.7542 20.8004 27.4337 16.3368C34.1132 11.8732 41.9662 9.49073 49.9997 9.49073C58.0331 9.49073 65.8861 11.8732 72.5656 16.3368C79.2452 20.8004 84.4512 27.1447 87.5255 34.5674C90.5997 41.9901 91.4041 50.1579 89.8369 58.0378C88.34 65.5639 84.7439 72.5045 79.4749 78.0623C79.0641 78.4956 78.3784 78.4947 77.9563 78.0725V78.0725C77.5342 77.6503 77.5354 76.9669 77.9455 76.5331C82.9126 71.2781 86.3031 64.7227 87.7165 57.616C89.2004 50.1555 88.4388 42.4225 85.5282 35.3948C82.6175 28.3672 77.6886 22.3606 71.3645 18.1345C65.0405 13.9085 57.6055 11.6528 49.9997 11.6528C42.3938 11.6528 34.9588 13.9085 28.6348 18.1345C22.3107 22.3606 17.3818 28.3672 14.4711 35.3948C11.5605 42.4225 10.7989 50.1555 12.2828 57.616C13.6962 64.7227 17.0867 71.2781 22.0538 76.5331C22.4639 76.9669 22.4651 77.6503 22.043 78.0725V78.0725Z" fill="#292929" fill-opacity="0.48"/>
</svg>
